<?xml version="1.0" encoding="utf-8"?>
<!-- Generator: Adobe Illustrator 27.9.0, SVG Export Plug-In . SVG Version: 6.00 Build 0)  -->
<?xml-stylesheet type="text/css" href="Assets/CSS/svg.css" ?>
<svg version="1.1" class="svgIcon" xmlns="http://www.w3.org/2000/svg" xmlns:xlink="http://www.w3.org/1999/xlink" x="0px" y="0px"
	 viewBox="0 0 256 256" style="enable-background:new 0 0 256 256;" xml:space="preserve">
<g>
	<path class="svgFill" d="M157.5,128c0,8.2-3.3,15.6-8.6,21c-5.3,5.4-12.6,8.7-20.6,8.7h-0.4c-16,0-29.3-13.3-29.3-29.7
		c0-8,3.3-15.3,8.6-20.6c5.3-5.3,12.6-8.6,20.6-8.6h0.4C144.2,98.7,157.5,112,157.5,128z"/>
	<path class="svgFill" d="M128,0C57.3,0,0,57.3,0,128s57.3,128,128,128s128-57.3,128-128S198.7,0,128,0z M209.7,165.5
		c0,24.2-19.9,44.1-44.1,44.1H90.4c-24.2,0-44.1-19.9-44.1-44.1V90.5c0-24.2,19.9-44.1,44.1-44.1h75.3c24.2,0,44.1,19.9,44.1,44.1
		V165.5z M165.3,60.5H90.7c-16.8,0-30.4,13.7-30.4,30.4v74.1c0,16.8,13.7,30.4,30.4,30.4h74.5c16.8,0,30.4-13.7,30.4-30.4V90.9
		C195.7,74.2,182,60.5,165.3,60.5z M159.5,159.5c-8.1,8-19.2,13-31.3,13h-0.4c-24.2,0-44.1-19.9-44.1-44.5c0-12.1,5-23.2,13-31.3
		c8-8.1,19-13.2,31.1-13.2h0.4c24.2,0,44.5,20.3,44.5,44.5C172.7,140.3,167.6,151.4,159.5,159.5z M178.5,90.9
		c-1.7,1.7-4.1,2.8-6.6,2.8c-2.7,0-5.1-1.1-6.7-2.8c-1.7-1.7-2.6-4-2.6-6.6c0-2.5,1-4.9,2.6-6.6c1.7-1.7,4-2.8,6.7-2.8
		c5.1,0,9.4,4.3,9.4,9.4C181.3,86.8,180.2,89.2,178.5,90.9z"/>
</g>
</svg>
