<?xml version="1.0" encoding="utf-8"?>
<!-- Generator: Adobe Illustrator 27.7.0, SVG Export Plug-In . SVG Version: 6.00 Build 0)  -->
<svg version="1.1" id="Layer_1" xmlns="http://www.w3.org/2000/svg" xmlns:xlink="http://www.w3.org/1999/xlink" x="0px" y="0px"
	 viewBox="0 0 612 174.2" enable-background="new 0 0 612 174.2" xml:space="preserve">
<g>
	<g>
		<path fill="#BE1E2D" d="M155.4,54.3c-4.4-1-7.6-4.7-13.4-3.1c-0.5-1.8,2.4-2.8,2.8-4.8c-1.2-3.5-4.9-4.5-5.8-8.2
			C147.6,31.5,164.5,45.1,155.4,54.3"/>
		<path fill="#BE1E2D" d="M190.8,42.9c2.2-0.3,6.2-0.6,6.5,2.1c0.5,4.3-8.5,3.6-13.4,4.1c-5.8,0.6-10.1,2.4-13.4,2.8
			c-3.5,0.3-6.7-0.6-6.9-2.4c-0.3-2.9,6-4.2,8.9-4.5C179.1,44.4,185.3,43.7,190.8,42.9"/>
		<path fill="#BE1E2D" d="M174,64.9c0.3,3.7,0.5,7.5,1.7,10.3c8.6-0.6,11.1-7.5,13.4-14.4C183.1,61.2,178.1,62.6,174,64.9
			 M188.4,78.7c-5.8,0.6-13.7-0.9-14.8,4.5c-7-1.9-7.3-10.5-9.6-17.2c1.1-2.8,1.8-6,4.1-7.6c1.7,0.3,2.6,1.5,4.1,2.1
			c6.7-2.7,24.2-8.2,25.4,1.7C198.6,69,189.9,72.8,188.4,78.7"/>
		<path fill="#BE1E2D" d="M177.8,108.6c-2.2,1.3-4.5,2.6-5.8,4.8c-0.1,0.9,0.5,1.1,0.7,1.7c2-0.3,4-0.6,5.5-1.4
			C177.4,111.8,179.4,109.3,177.8,108.6 M169.8,103.4c0.1,3.1,1.1,5.4,1.7,7.9c2.9-2.5,7.8-3,7.2-8.9
			C175.4,102.4,172.9,103.1,169.8,103.4 M184.3,103.1c1.3-0.2,2.3-0.7,2.7-1.7c-0.4-0.5-1.5-0.3-2.4-0.3
			C184.2,101.4,184.2,102.2,184.3,103.1 M167.8,93.1c0.4,2.4,1.1,4.4,1.7,6.5c3.2-0.5,6-1.3,9.3-1.7V90
			C174.4,90.4,171.7,92.3,167.8,93.1 M184.3,89v7.9c4.8,0.6,10.7-2,11.7,2.4c-2.6,3.5-9.5,2.6-12,6.2c-0.3,2.3-0.4,4.8-0.3,7.6
			c2.6,0.1,6.7,1.3,4.8,3.8c1,0.5,2.6,0.3,4.1,0.3c3.7-8.6,6.7-17.9,7.2-29.6C194.4,86.5,188.9,88.2,184.3,89 M208.7,88
			c-0.1,7-1.9,13.4-4.1,20.3c-2.1,6.8-4.2,19.9-13.4,18.2c-3.6-0.7-4.9-7.3-8.9-8.2c-4.8-1.2-8.6,1.6-13.1,3.1
			c-6.1-7.9-7.7-20.3-7.9-34c2.5-0.2,3.4,1.2,5.2,1.7C177,86.1,200,78.4,208.7,88"/>
		<path fill="#BE1E2D" d="M141,91.4c1.9-1.7,5.9-3.3,4.1-7.6C144,86.4,141.3,89.2,141,91.4 M163.7,71.8c-1,1.6-1.2,3.4-2.4,5.5
			c0,0.1-1.1,0.2-1.4,0.7c-0.3,0.4,0,1.3-0.3,1.7c-0.6,0.7-2.1,1.1-2.4,1.7c-0.5,0.9-0.2,2.5-0.7,3.4c-1.1,2.2-3.8,3-4.5,5.5
			c-0.4,1.3,0.1,3,0,4.5c-0.2,3.9-0.8,8.6-1,13.4c-0.3,7.3,1.1,15.5,0,21.3c-1.4,7.4-6.9,3.1-7.6-2.8c-1-8.9,1.3-20.6,1-28.9
			c-2.4,2.1-5,4.9-8.2,7.9c-3.8,3.5-7.1,9.4-14.1,6.9c-3.6-3.7,2.2-9,4.8-12.7c6.2-9,12.9-19.6,17.9-28.5
			c-5.8,2.8-12.6,7.5-19.2,10.7c-5.6-0.4-10.6-6-6.5-11c1.5-0.3,0.9,1.6,2.7,1c5-1.6,10-2.8,15.8-5.2c4.7-1.9,12.2-6.9,16.5-5.2
			c2.5,5.9-3,11.6-1.7,19.6C156.2,79.7,159.9,74.8,163.7,71.8"/>
		<g>
			<path fill="#8A8C8F" d="M241.7,111.2c6,0,8.6-1.6,8.6-9.1V59.3h-0.7c-11.8,0-15.9,8.8-18.8,18.4l-0.3-0.1l1.4-19h49.6l1.5,19
				l-0.4,0.1c-2.8-9.6-6.9-18.4-18.8-18.4H263v42.8c0,7.5,2.6,9.1,8.6,9.1v0.5h-29.9V111.2z"/>
			<path fill="#8A8C8F" d="M288.7,85.2c0-16,12.5-27.5,29.6-27.5c17,0,29.6,11.5,29.6,27.5c0,16-12.6,27.5-29.6,27.5
				C301.3,112.7,288.7,101.2,288.7,85.2z M334.1,85.2c0-13.5-3.3-26.8-15.8-26.8c-12.5,0-15.9,13.5-15.9,26.8
				c0,13.5,3.4,26.8,15.9,26.8S334.1,98.8,334.1,85.2z"/>
		</g>
		<g>
			<path fill="#8A8C8F" d="M352.2,70.4c-1.9-4.4-4.7-11.1-11.1-11.1v-0.5h28.1v0.5c-6.1,0-6.2,4.5-4.2,9.6l11,27.4l9.1-23.1l-1-2.8
				c-2.5-6.3-5.7-11.1-11-11.1v-0.5h29.2v0.5c-6.6,0-7,5.4-5.1,10.9l9.5,25.6l6.2-16.5c2-5.3,2.9-9.5,2.9-12.5
				c0-4.6-2.3-7.5-7.5-7.5v-0.5h22.3v0.5c-5.2,0-8.6,2.8-11.1,7.1c-2.1,3.3-3.8,8-5.8,13.3l-12.6,32.5h-0.5l-15-37.6l-15.1,37.6
				h-0.6L352.2,70.4z"/>
		</g>
		<g>
			<path fill="#8A8C8F" d="M428.3,111.2c9.9,0,10.9-5.1,10.9-23.2V72.4c0-8.7-2.2-13.2-10.3-13.2v-0.5h18.7l30.4,33.5v-9.8
				c0-18.2-1-23.2-10.9-23.2v-0.5h22.7v0.5c-9.9,0-11,5.1-11,23.2v29.8l-0.4,0.1l-38.4-42.3v17.8c0,18.2,1.1,23.2,11,23.2v0.5h-22.7
				V111.2z"/>
		</g>
	</g>
	<rect x="219.2" y="33.4" fill="#8A8C8F" width="1" height="103"/>
</g>
</svg>
