<?xml version="1.0" encoding="utf-8"?>
<!-- Generator: Adobe Illustrator 27.9.0, SVG Export Plug-In . SVG Version: 6.00 Build 0)  -->
<?xml-stylesheet type="text/css" href="Assets/CSS/svg.css" ?>
<svg version="1.1" class="svgIcon" xmlns="http://www.w3.org/2000/svg" xmlns:xlink="http://www.w3.org/1999/xlink" x="0px" y="0px"
	 viewBox="0 0 256 256" style="enable-background:new 0 0 256 256;" xml:space="preserve">
<g>
	<polygon class="svgFill" points="134.4,124.8 177.5,186.4 159.8,186.4 124.7,136.1 119.5,128.7 78.5,70 96.1,70 129.2,117.4 	"/>
	<path class="svgFill" d="M128,0C57.3,0,0,57.3,0,128s57.3,128,128,128c70.7,0,128-57.3,128-128S198.7,0,128,0z M154.4,194.6l-35.5-51.7
		l-44.5,51.7H62.8l50.9-59.2L62.8,61.4h38.8l33.7,49l42.2-49h11.5l-48.5,56.4l52.8,76.8H154.4z"/>
</g>
</svg>
