<?xml version="1.0" encoding="utf-8"?>
<!-- Generator: Adobe Illustrator 27.9.0, SVG Export Plug-In . SVG Version: 6.00 Build 0)  -->
<?xml-stylesheet type="text/css" href="Assets/CSS/svg.css" ?>
<svg version="1.1" class="svgIcon" xmlns="http://www.w3.org/2000/svg" xmlns:xlink="http://www.w3.org/1999/xlink" x="0px" y="0px"
	 viewBox="0 0 256 256" style="enable-background:new 0 0 256 256;" xml:space="preserve">
<g>
	<polygon class="svgEmpty" points="153.3,127.8 112.3,151.7 112.3,104.2 	"/>
	<path class="svgFill" d="M128,0.2C57.4,0.2,0.2,57.4,0.2,128S57.4,255.8,128,255.8S255.8,198.6,255.8,128S198.6,0.2,128,0.2z
		 M206.4,144.8c-0.3,5.4-0.8,10.3-1.4,14.2c-2.4,18.4-11.6,21.1-29.7,22.7c-15.6,1.5-33.4,1.8-47.1,1.8c-6.9,0-14.9-0.1-23-0.3
		c-8.2-0.3-16.5-0.7-24.2-1.5c-18.1-1.5-27.5-4.3-30-22.7c-0.9-8-1.5-19.6-1.5-31.2c0-5.8,0.1-11.6,0.4-16.9
		c0.3-5.3,0.6-10.2,1.1-14.4c2.5-18,11.9-21.1,30-22.7c15.3-1.2,33.4-1.8,47.1-1.8c6.9,0,14.8,0.2,22.9,0.5
		c8.1,0.3,16.4,0.8,24.3,1.4c18.1,1.5,27.2,4.6,29.7,22.7c1.2,8.3,1.8,19.6,1.8,31.2C206.9,133.6,206.7,139.4,206.4,144.8z"/>
</g>
</svg>